<svg xmlns="http://www.w3.org/2000/svg" xmlns:xlink="http://www.w3.org/1999/xlink" xml:space="preserve" version="1.1" style="shape-rendering:geometricPrecision;text-rendering:geometricPrecision;image-rendering:optimizeQuality;" viewBox="0 0 7342 9177.5" x="0px" y="0px" fill-rule="evenodd" clip-rule="evenodd"><defs><style type="text/css">
   
    .fil0 {fill:black;fill-rule:nonzero}
   
  </style></defs><g><path class="fil0" d="M6411 4517l-593 0c-56,154 -120,297 -191,428 -54,100 -111,193 -173,278l-9 0 0 -1077 104 0c89,-313 145,-664 159,-1038l-1102 0 0 820 -372 0 0 -820 -514 0 0 -371 514 0 0 -1039 -943 0c-60,211 -105,440 -132,681l-373 0c25,-238 66,-467 121,-681l-726 0c-115,211 -202,440 -254,681l-379 0c111,-589 399,-1116 806,-1523 529,-529 1259,-856 2066,-856 807,0 1538,327 2066,856 529,529 856,1259 856,2066 0,807 -327,1538 -856,2067 -83,83 -172,161 -265,234l-698 0c261,-125 498,-294 701,-497 66,-66 129,-136 187,-209zm-3982 -3190l593 0c56,-153 120,-297 191,-428 64,-118 133,-227 208,-325 -303,129 -576,315 -805,544 -66,66 -129,136 -187,209zm2990 -753c75,98 144,207 208,325 71,131 135,275 191,428l593 0c-58,-73 -121,-143 -187,-209 -229,-229 -502,-415 -805,-544zm1240 1124l-726 0c82,319 133,670 146,1039l886 0c-27,-375 -135,-726 -306,-1039zm306 1410l-886 0c-13,369 -64,719 -146,1038l726 0c171,-312 279,-664 306,-1038zm-3546 -1781l815 0 0 -928c-263,79 -505,323 -695,676 -43,79 -83,163 -120,252zm1187 -928l0 928 815 0c-37,-89 -77,-173 -120,-252 -190,-353 -432,-597 -695,-676zm943 1299l-943 0 0 1039 1102 0c-14,-374 -70,-726 -159,-1039zm-5549 3922l7342 0 -1147 1722c0,0 -209,-428 -733,-381 -523,47 -943,381 -1445,381 -501,0 -763,-273 -1272,-338 -509,-65 -673,338 -1598,338l-1147 -1722zm292 -552l5141 0 0 402 -5141 0 0 -402zm1571 -585l0 399 -1337 0 0 -399 1337 0zm-1337 -351l1337 0 0 237 -1337 0 0 -237zm2964 351l0 399 -1337 0 0 -399 1337 0zm-1337 -351l1337 0 0 237 -1337 0 0 -237zm2964 351l0 399 -1337 0 0 -399 1337 0zm-1337 -351l1337 0 0 237 -1337 0 0 -237zm-1917 -1139l0 993 -1337 0 0 -993 1337 0zm-424 738l255 0 0 110 -255 0 0 -110zm-913 -1090l1337 0 0 237 -1337 0 0 -237zm2964 352l0 993 -1337 0 0 -993 1337 0zm-424 738l255 0 0 110 -255 0 0 -110zm-913 -1090l1337 0 0 237 -1337 0 0 -237z"/></g><text x="0" y="7357" fill="#000000" font-size="5px" font-weight="bold" font-family="'Helvetica Neue', Helvetica, Arial-Unicode, Arial, Sans-serif">Created by popcornarts</text><text x="0" y="7362" fill="#000000" font-size="5px" font-weight="bold" font-family="'Helvetica Neue', Helvetica, Arial-Unicode, Arial, Sans-serif">from the Noun Project</text></svg>