<svg xmlns="http://www.w3.org/2000/svg" version="1.1" viewBox="-5.0 -10.0 110.0 135.0">
 <path d="m47.328 82.031h-41.078c-0.86328 0-1.5625-0.69922-1.5625-1.5625v-28.125c0-7.7656 6.2969-14.062 14.062-14.062h20.312c7.7656 0 14.062 6.2969 14.062 14.062v0.72266c-4.8242 4.8086-7.8125 11.465-7.8125 18.809 0 3.5977 0.71484 7.0273 2.0156 10.156zm-18.422-77.344c8.625 0 15.625 7 15.625 15.625s-7 15.625-15.625 15.625-15.625-7-15.625-15.625 7-15.625 15.625-15.625zm42.969 43.75c12.934 0 23.438 10.504 23.438 23.438s-10.504 23.438-23.438 23.438-23.438-10.504-23.438-23.438 10.504-23.438 23.438-23.438zm12.5 32.812v-8.9531c0.97656-0.85938 1.5625-2.1289 1.5625-3.5469v-3.125c0-0.14844-0.019531-0.29297-0.058594-0.42969l-1.5625-5.4688c-0.19141-0.67187-0.80469-1.1328-1.5039-1.1328h-21.875c-0.69922 0-1.3125 0.46094-1.5039 1.1328l-1.5625 5.4688c-0.039063 0.13672-0.058594 0.28125-0.058594 0.42969v3.125c0 1.418 0.58594 2.6875 1.5625 3.5469v8.9531h-0.78125c-0.86328 0-1.5625 0.69922-1.5625 1.5625s0.69922 1.5625 1.5625 1.5625h26.562c0.86328 0 1.5625-0.69922 1.5625-1.5625s-0.69922-1.5625-1.5625-1.5625zm-4.6875-12.5v-1.5625h3.125v1.5625c0 0.86328-0.65234 1.5625-1.5625 1.5625s-1.5625-0.69922-1.5625-1.5625zm-12.5-1.5625h3.125v1.5625c0 0.86328-0.65234 1.5625-1.5625 1.5625s-1.5625-0.69922-1.5625-1.5625zm-4.6875 6.25c1.2383 0 2.3164-0.42969 3.125-1.1406 0.80859 0.71094 1.8867 1.1406 3.125 1.1406s2.3164-0.42969 3.125-1.1406c0.80859 0.71094 1.8867 1.1406 3.125 1.1406s2.3164-0.42969 3.125-1.1406c0.80859 0.71094 1.8867 1.1406 3.125 1.1406v7.8125h-4.6875v-5.4688c0-0.86328-0.69922-1.5625-1.5625-1.5625h-6.25c-0.86328 0-1.5625 0.69922-1.5625 1.5625v5.4688h-4.6875zm1.5625-6.25v1.5625c0 0.86328-0.65234 1.5625-1.5625 1.5625s-1.5625-0.69922-1.5625-1.5625v-1.5625h3.125zm12.5 1.5625c0 0.86328-0.65234 1.5625-1.5625 1.5625s-1.5625-0.69922-1.5625-1.5625v-1.5625h3.125zm-15.117-4.6875 0.67188-2.3438h19.516l0.67188 2.3438zm8.8672 17.188v-3.9062h3.125v3.9062z" fill-rule="evenodd"/>
<text x="0.0" y="117.5" font-size="5.0" font-weight="bold" font-family="Arbeit Regular, Helvetica, Arial-Unicode, Arial, Sans-serif" fill="#000000">Created by Febrian Hidayat</text><text x="0.0" y="122.5" font-size="5.0" font-weight="bold" font-family="Arbeit Regular, Helvetica, Arial-Unicode, Arial, Sans-serif" fill="#000000">from Noun Project</text></svg>