<svg xmlns:inkscape="http://www.inkscape.org/namespaces/inkscape" xmlns:sodipodi="http://sodipodi.sourceforge.net/DTD/sodipodi-0.dtd" xmlns="http://www.w3.org/2000/svg" xmlns:svg="http://www.w3.org/2000/svg" xmlns:rdf="http://www.w3.org/1999/02/22-rdf-syntax-ns#" xmlns:cc="http://creativecommons.org/ns#" xmlns:dc="http://purl.org/dc/elements/1.1/" viewBox="0 0 10.583333 13.2291675" version="1.1" x="0px" y="0px"><g><path style="color:#000000;paint-order:fill markers stroke;" d="M 2.7954358,2.8923311 A 0.26460995,0.26460995 0 0 0 2.529818,3.1579481 v 0.42168 a 0.26458349,0.26458349 0 0 0 0.2656178,0.263549 0.26458349,0.26458349 0 0 0 0.2640648,-0.263549 v -0.15813 h 4.240051 v 3.081982 H 5.1322437 C 5.0180099,6.1221391 4.6617564,5.8415061 4.2449583,5.8415051 c -0.4167982,0 -0.7719722,0.280634 -0.8857324,0.661975 H 2.7954358 a 0.26458349,0.26458349 0 0 0 -0.2656178,0.265617 0.26458349,0.26458349 0 0 0 0.2656178,0.26355 h 0.5653379 c 0.1154641,0.379111 0.4693232,0.658357 0.8841846,0.658357 0.414864,0 0.7697972,-0.279246 0.885735,-0.658357 h 2.4324098 0.4929928 c 0.1159378,0.379111 0.470871,0.658357 0.885735,0.658357 0.4148614,0 0.7687205,-0.279246 0.884182,-0.658357 h 0.4929931 a 0.26460995,0.26460995 0 0 0 0.263551,-0.26355 v -1.548743 a 0.26460995,0.26460995 0 0 0 -0.04082,-0.142627 L 9.6647837,3.7046841 A 0.26460995,0.26460995 0 0 0 9.4420575,3.5837621 H 7.8287183 V 3.1579481 A 0.26460995,0.26460995 0 0 0 7.5631031,2.8923311 Z m -0.4687067,1.150317 a 0.26458349,0.26458349 0 0 0 -0.2656152,0.26355 0.26458349,0.26458349 0 0 0 0.2656152,0.265617 h 1.6154056 a 0.26458349,0.26458349 0 0 0 0.2656178,-0.265617 0.26458349,0.26458349 0 0 0 -0.2656178,-0.26355 z m 5.5019892,0.07028 h 1.4686439 l 0.7560278,1.183391 v 1.207161 H 9.8275633 C 9.7138004,6.1221391 9.3586264,5.8415061 8.9418309,5.8415051 c -0.4168007,0 -0.7730516,0.280634 -0.8872854,0.661975 H 7.8287183 Z m -6.5329328,0.802535 a 0.26458349,0.26458349 0 0 0 -0.2640674,0.265617 0.26458349,0.26458349 0 0 0 0.2640674,0.264067 H 3.4264036 A 0.26458349,0.26458349 0 0 0 3.6920214,5.1810801 0.26458349,0.26458349 0 0 0 3.4264036,4.9154631 Z M 0.26432322,5.7908621 A 0.26458349,0.26458349 0 0 0 7.7441371e-4,6.0564791 0.26458349,0.26458349 0 0 0 0.26432322,6.3200291 H 2.9106725 a 0.26458349,0.26458349 0 0 0 0.2656178,-0.26355 0.26458349,0.26458349 0 0 0 -0.2656178,-0.265617 z m 3.98063508,0.57981 c 0.22216,0 0.396359,0.173782 0.396359,0.394807 0,0.221025 -0.174199,0.396359 -0.396359,0.396359 -0.2221601,0 -0.396875,-0.175334 -0.396875,-0.396359 0,-0.221025 0.1747149,-0.394807 0.396875,-0.394807 z m 4.6968726,0 c 0.2221574,0 0.394806,0.173782 0.394806,0.394807 0,0.221025 -0.1726486,0.396359 -0.394806,0.396359 -0.2221626,0 -0.396359,-0.175334 -0.396359,-0.396359 0,-0.221025 0.1741964,-0.394807 0.396359,-0.394807 z" fill="#000000" fill-rule="evenodd" stroke-width="1" stroke-linejoin="round"/></g><text x="0" y="25.583334" fill="#000000" font-size="5px" font-weight="bold" font-family="'Helvetica Neue', Helvetica, Arial-Unicode, Arial, Sans-serif">Created by Larea</text><text x="0" y="30.583334" fill="#000000" font-size="5px" font-weight="bold" font-family="'Helvetica Neue', Helvetica, Arial-Unicode, Arial, Sans-serif">from the Noun Project</text></svg>